<svg xmlns="http://www.w3.org/2000/svg" width="308.878" height="192.385" viewBox="0 0 308.878 192.385">
  <g id="Group_724" data-name="Group 724" transform="translate(-475.576 810)">
    <g id="Group_724-2" data-name="Group 724" transform="translate(475.576 -688.916)">
      <path id="Subtraction_21" data-name="Subtraction 21" d="M29.99,54.131a38.181,38.181,0,0,1-5.248-.359,36.515,36.515,0,0,1-5.211-1.119,30.621,30.621,0,0,1-6.354-2.643,26.46,26.46,0,0,1-5.522-4.123A24.519,24.519,0,0,1,3.218,40.05,25.8,25.8,0,0,1,.7,33.18a29.625,29.625,0,0,1-.691-6.937,26.46,26.46,0,0,1,1.066-6.879A29.808,29.808,0,0,1,3.9,12.729a24,24,0,0,1,9.6-9.206A31.2,31.2,0,0,1,27.688,0a28.834,28.834,0,0,1,7.955,1.125,26.468,26.468,0,0,1,6.09,2.567A21.483,21.483,0,0,1,46.526,7.5a21.95,21.95,0,0,1,3.515,5.021A27.874,27.874,0,0,1,52.3,18.727a24.5,24.5,0,0,1,.676,6.186c-.012.6-.013.646-.635.8-1.628.4-3.289.793-4.9,1.172l-.054.013-.678.16L35.966,29.573l-.036.008L25.9,31.932c-3.049.714-6.143,1.445-9.135,2.152l-3,.707c-.048.011-.1.022-.144.031a2.509,2.509,0,0,0-.286.071.3.3,0,0,0-.206.184.335.335,0,0,0,.054.29,13.005,13.005,0,0,0,3.082,3.187,19.241,19.241,0,0,0,7.837,3.386,30.053,30.053,0,0,0,5.8.569,34.079,34.079,0,0,0,11.707-2.192,44.479,44.479,0,0,0,6.053-2.81c.205-.112.415-.22.638-.335l0,0,.348-.18c.056.086.105.154.149.215a1.267,1.267,0,0,1,.161.262l.247.638c1.094,2.829,2.226,5.754,3.328,8.64.141.371.2.562.146.713s-.228.262-.579.458a46.638,46.638,0,0,1-14.352,5.492A43.77,43.77,0,0,1,29.99,54.131ZM27.813,11.679a22.035,22.035,0,0,0-2.8.183A15.393,15.393,0,0,0,11.66,23.485a2.566,2.566,0,0,0-.061.315c-.006.04-.012.081-.019.122a.431.431,0,0,0,.067.355.285.285,0,0,0,.225.094.5.5,0,0,0,.092-.009c.146-.028.293-.066.435-.1.093-.024.188-.049.283-.071l1.969-.458.055-.013c7.143-1.661,14.53-3.379,21.792-5.071.772-.179,1.531-.368,2.334-.567.419-.1.853-.212,1.294-.319A6.66,6.66,0,0,0,38.678,15.6a11.3,11.3,0,0,0-5.158-3.085A19.606,19.606,0,0,0,27.813,11.679Z" transform="translate(52.581 16.872)" fill="#fff"/>
      <path id="Subtraction_22" data-name="Subtraction 22" d="M30.145,54.111c-.791,0-1.6-.021-2.412-.063a36.462,36.462,0,0,1-6.672-.953,31.005,31.005,0,0,1-6.347-2.287,29.627,29.627,0,0,1-4.925-3.022,24.556,24.556,0,0,1-3.982-3.8,23.26,23.26,0,0,1-2.983-4.607A25.754,25.754,0,0,1,.894,33.941a32.68,32.68,0,0,1-.875-6.294,27.243,27.243,0,0,1,.444-6.06,25.933,25.933,0,0,1,1.827-5.8,28.8,28.8,0,0,1,3.276-5.5,24.237,24.237,0,0,1,4.82-4.818,25.249,25.249,0,0,1,5.966-3.292A32.463,32.463,0,0,1,21.928.55,29.487,29.487,0,0,1,27.566,0a29.88,29.88,0,0,1,8.44,1.238,25.564,25.564,0,0,1,5.771,2.467,21.313,21.313,0,0,1,4.6,3.633A21.927,21.927,0,0,1,49.808,12.1,27.407,27.407,0,0,1,52.1,17.96a31.876,31.876,0,0,1,.871,5.715c.025.294.025.6.025.892v.011c0,.959,0,.978-.892,1.2-1.141.281-2.306.554-3.432.817h0l-.609.143c-10.094,2.373-20.377,4.787-30.045,7.057l-1.473.342h0c-.937.217-1.905.441-2.856.67-.33.08-.49.167-.534.291s.028.31.259.617a13.91,13.91,0,0,0,1.688,1.871,18.09,18.09,0,0,0,8.968,4.352,30.059,30.059,0,0,0,5.863.581,34.223,34.223,0,0,0,13.163-2.8c.974-.405,1.935-.884,2.865-1.348.464-.231.944-.47,1.419-.7a4.18,4.18,0,0,0,.4-.226,2.1,2.1,0,0,1,.973-.384c.029.062.061.126.091.187.074.151.151.308.213.469,1.225,3.169,2.357,6.114,3.463,9,.295.765.284.8-.378,1.174a58.7,58.7,0,0,1-8.348,3.847,37.324,37.324,0,0,1-6.733,1.8A41.38,41.38,0,0,1,30.145,54.111ZM27.812,11.68a22.032,22.032,0,0,0-2.629.161,15.456,15.456,0,0,0-13.7,12.468c.081.008.152.02.215.03a1.413,1.413,0,0,0,.214.024.382.382,0,0,0,.1-.011C21.043,22.246,30.22,20.1,39.1,18.022h0l.9-.211a1.807,1.807,0,0,0-.507-1.187c-.047-.061-.1-.123-.141-.185a10.812,10.812,0,0,0-5.808-3.906A19.453,19.453,0,0,0,27.812,11.68Z" transform="translate(109.884 16.871)" fill="#fff"/>
      <path id="Subtraction_23" data-name="Subtraction 23" d="M28.014,70.49c-.243,0-.489,0-.731-.008a32.9,32.9,0,0,1-5.357-.548,28.43,28.43,0,0,1-5.013-1.427,27.058,27.058,0,0,1-4.648-2.347A28.776,28.776,0,0,1,8,62.852,24.226,24.226,0,0,1,3.919,57.87a25.053,25.053,0,0,1-2.628-5.881A28.955,28.955,0,0,1,0,43.274,27.087,27.087,0,0,1,3.912,29.663,24.3,24.3,0,0,1,7.124,25.5a25.292,25.292,0,0,1,4.034-3.386,29.613,29.613,0,0,1,4.819-2.628,30.643,30.643,0,0,1,4.987-1.665,35.122,35.122,0,0,1,5.2-.838c1.316-.114,2.6-.172,3.832-.172,1.063,0,2.118.043,3.135.129a44.717,44.717,0,0,1,7.428,1.4l.243.064h0a4.22,4.22,0,0,0,.892.185c.312,0,.412-.189.678-.693.064-.121.136-.258.223-.415,2.1-3.8,4.236-7.661,6.3-11.4l0-.008.032-.058,2.636-4.779c.166-.3.343-.6.513-.886L52.294,0c.081.023.168.05.263.081V1.413q0,6.054,0,12.107v.016c0,11.9,0,24.212.007,36.319a21.488,21.488,0,0,1-.351,3.916,20.973,20.973,0,0,1-1.074,3.776,17.941,17.941,0,0,1-3.29,5.435,19.352,19.352,0,0,1-4.965,3.967A24.542,24.542,0,0,1,38.757,68.8a29.011,29.011,0,0,1-4.38,1.117A36.867,36.867,0,0,1,28.014,70.49Zm1.915-42.117a32.575,32.575,0,0,0-4.082.25,20.116,20.116,0,0,0-8.1,2.717,13.557,13.557,0,0,0-5.381,5.8,14.6,14.6,0,0,0-.084,12.784c2.256,4.933,6.433,7.87,12.415,8.729a22.062,22.062,0,0,0,3.145.22,29.9,29.9,0,0,0,5.43-.536,12.2,12.2,0,0,0,5.659-2.463A7.582,7.582,0,0,0,41.849,50.1c.016-.39.016-.787.015-1.171V40.735c0-.885,0-1.792,0-2.591v-.009c0-2.264,0-4.605.008-6.91a.948.948,0,0,0-.666-1.01,19.809,19.809,0,0,0-4.557-1.292A44.486,44.486,0,0,0,29.929,28.373Z" transform="translate(167.166 0.152)" fill="#fff"/>
      <path id="Subtraction_24" data-name="Subtraction 24" d="M24.593,70.621a34.059,34.059,0,0,1-4.821-.338,31.749,31.749,0,0,1-4.744-1.056,22.439,22.439,0,0,1-6.275-2.98,19.216,19.216,0,0,1-2.636-2.2,19.6,19.6,0,0,1-2.262-2.728,20.227,20.227,0,0,1-2.2-4.2A24.088,24.088,0,0,1,.41,52.54a30.9,30.9,0,0,1-.4-5.328c0-16.962,0-31.89,0-45.635,0-.081,0-.16-.005-.243A2.991,2.991,0,0,1,.2,0L.867,1.217v0c.447.814.87,1.584,1.282,2.346,1.31,2.419,2.642,4.879,3.929,7.258l.065.121c1.239,2.29,2.644,4.886,3.995,7.379.045.083.09.169.134.251.116.22.235.446.368.66a.462.462,0,0,0,.379.252.49.49,0,0,0,.246-.075,1.076,1.076,0,0,1,.133-.065A28.982,28.982,0,0,1,20.74,17.1c1.16-.1,2.321-.151,3.45-.151a36.291,36.291,0,0,1,6.018.495,34.171,34.171,0,0,1,5.885,1.542A26.2,26.2,0,0,1,42.034,22a23.265,23.265,0,0,1,4.9,4.524A23.784,23.784,0,0,1,50.309,32.1a27.147,27.147,0,0,1,1.814,6.258,29.61,29.61,0,0,1-1.238,15.056,24.843,24.843,0,0,1-2.814,5.58,24.443,24.443,0,0,1-4.146,4.674,28.957,28.957,0,0,1-5.494,3.746,26.553,26.553,0,0,1-5.223,2.1,29.142,29.142,0,0,1-5.551.987C26.626,70.578,25.6,70.621,24.593,70.621ZM22.771,28.528A32.8,32.8,0,0,0,11.49,30.819a.889.889,0,0,0-.629,1.016c.009,2.045.008,4.12.007,6.126v.044q0,1,0,2c0,.8,0,1.623-.009,2.414-.01,1.741-.02,3.539.018,5.309a10.759,10.759,0,0,0,5.706,9.6,12.411,12.411,0,0,0,2.868,1.2,20.73,20.73,0,0,0,5.537.75,23.165,23.165,0,0,0,4.75-.508c7-1.472,11.523-6.549,12.1-13.58.539-6.5-2.468-11.768-8.249-14.457-.4-.186-.755-.342-1.087-.477a25.443,25.443,0,0,0-8.841-1.7C23.369,28.534,23.069,28.528,22.771,28.528Z" transform="translate(0)" fill="#fff"/>
      <path id="Subtraction_25" data-name="Subtraction 25" d="M49.015,54.444a2.968,2.968,0,0,1-1.631-.485,7.99,7.99,0,0,1-1.831-1.722c-.21-.258-.4-.521-.624-.826-.108-.148-.22-.3-.342-.466-.46.191-.91.39-1.345.583a24.977,24.977,0,0,1-3.007,1.18A36,36,0,0,1,35.11,53.82a37.127,37.127,0,0,1-5.184.361,40.534,40.534,0,0,1-4.391-.244,35.435,35.435,0,0,1-5.255-.965A29.893,29.893,0,0,1,9.658,47.725a24,24,0,0,1-7.441-9.74A28.946,28.946,0,0,1,.41,31.674,27.344,27.344,0,0,1,1.587,17.756a26.231,26.231,0,0,1,2.156-4.631A23.992,23.992,0,0,1,6.666,9.182a24.784,24.784,0,0,1,3.665-3.271A28.6,28.6,0,0,1,14.712,3.3,32.425,32.425,0,0,1,22,.786,36.048,36.048,0,0,1,29.6,0c.992,0,2.014.038,3.039.112a26.566,26.566,0,0,1,4.539.716,23,23,0,0,1,4.333,1.557,20.911,20.911,0,0,1,3.857,2.376,18.025,18.025,0,0,1,3.041,3.026,18.3,18.3,0,0,1,2.234,3.665,21.733,21.733,0,0,1,1.437,4.294,24.544,24.544,0,0,1,.558,5.458c0,9.011,0,18.172,0,27.031v.028c0,.3-.011.613-.022.911-.012.335-.025.68-.021,1.019a5.278,5.278,0,0,1-.994,2.906A3.1,3.1,0,0,1,49.015,54.444ZM29.742,11.808a29.232,29.232,0,0,0-6.617.757,18.7,18.7,0,0,0-6.5,2.816,13.027,13.027,0,0,0-5.5,8.175,17.351,17.351,0,0,0-.149,6.35,13.339,13.339,0,0,0,4.337,8.073,16.791,16.791,0,0,0,7.041,3.68A28.755,28.755,0,0,0,29.6,42.6h0a28.991,28.991,0,0,0,4.833-.41,40.48,40.48,0,0,0,6.84-1.961.793.793,0,0,0,.632-.864c-.01-.231-.007-.467,0-.694,0-.114,0-.231,0-.347V30c0-.833,0-1.681.005-2.5v0c.006-2.054.013-4.178-.021-6.263a8.505,8.505,0,0,0-5.328-8.2,12.653,12.653,0,0,0-4.138-1.106C31.528,11.848,30.626,11.808,29.742,11.808Z" transform="translate(224.125 16.857)" fill="#fff"/>
    </g>
    <g id="Group_725" data-name="Group 725" transform="translate(639.325 -810)">
      <path id="Union_4" data-name="Union 4" d="M5.256,106.334A39.5,39.5,0,0,1,.28,98.017c-.476-1.088-.4-1.365.655-1.946a64.756,64.756,0,0,0,8.289-5.4,59.74,59.74,0,0,0,20.01-26.256c.067-.175.144-.347.222-.515.409-.889.706-1.088,1.595-.8,1.423.452,2.839.936,4.222,1.5A33.5,33.5,0,0,1,40.1,67.043a1.262,1.262,0,0,1,.628,1.481c-.027.105-.121.464-.218.823a57.484,57.484,0,0,1-17.951,28.3,63.914,63.914,0,0,1-14.1,9.412,4.636,4.636,0,0,1-1.659.632C6.3,107.695,5.989,107.286,5.256,106.334ZM47.221,67.549c-2.534-3.053-5.883-4.952-9.389-6.625-.62-.3-1.251-.557-1.879-.834-1.178-.523-1.251-.624-.959-1.809.55-2.238,1.076-4.48,1.708-6.695A166.589,166.589,0,0,1,49.1,20.195,98.923,98.923,0,0,1,55.273,9.96,23.683,23.683,0,0,1,68.1.8,17.781,17.781,0,0,1,73.809,0a11,11,0,0,1,9.206,4.866A18.284,18.284,0,0,1,85.69,10.6a42.358,42.358,0,0,1,1.521,11.553A39.34,39.34,0,0,1,76.64,50.167,60.2,60.2,0,0,1,61.929,61.876a75.472,75.472,0,0,1-11.99,5.634c-.409.148-.834.257-1.232.437a1.328,1.328,0,0,1-.541.128A1.228,1.228,0,0,1,47.221,67.549Z" transform="translate(57.912 0)" fill="#e7e25b"/>
      <path id="Union_3" data-name="Union 3" d="M120.862,125.684a2.812,2.812,0,0,1-1.025-.78c-1.022-.912-2.027-1.844-3.072-2.725a19.658,19.658,0,0,0-1.961-1.431c-1.723-1.119-1.731-1.108-3.458-.035a22.477,22.477,0,0,1-8.379,3.014,26.228,26.228,0,0,1-5.583.379,2.171,2.171,0,0,0-.327.016c-.338.034-.693.069-.8-.348-.105-.394.425-.538.706-.757s.612-.425.92-.643a61.27,61.27,0,0,0,20.443-23.855,8.236,8.236,0,0,1,.468-.8c.019-.043.1-.047.347-.141a13.434,13.434,0,0,1,.569,3.911,28.718,28.718,0,0,1-.331,6.89,18.581,18.581,0,0,1-2.511,6.788,1.824,1.824,0,0,0-.035,2.066,17.709,17.709,0,0,0,2,2.925c.839,1,1.719,1.973,2.558,2.979a6.261,6.261,0,0,1,.822,1.228.894.894,0,0,1-.148,1.046,1.017,1.017,0,0,1-.767.339A1.514,1.514,0,0,1,120.862,125.684Zm-39.353-5.26a50.841,50.841,0,0,1-8.874-5.143c-.2-.148-.409-.289-.6-.445-.651-.531-.639-.862.055-1.237.436-.238.893-.44,1.333-.67A63.783,63.783,0,0,0,97.4,91.746a57.116,57.116,0,0,0,7.584-16.579c.117-.421.214-.846.343-1.259.246-.791.628-.94,1.162-.4a46.122,46.122,0,0,1,7.989,10.769,3.852,3.852,0,0,1,.23.538c-.136.46-.265.94-.425,1.411a56.334,56.334,0,0,1-7.845,15.218,63.9,63.9,0,0,1-22.123,18.9,3.1,3.1,0,0,1-1.472.411A3.154,3.154,0,0,1,81.509,120.423ZM55.292,86.774a4.286,4.286,0,0,1-.046-.542v-.016A24.811,24.811,0,0,1,56.294,76.8a2.835,2.835,0,0,0,.088-.377l0-.007c.01-.054.02-.109.031-.163.069-.2.074-.33.016-.413a.293.293,0,0,0-.257-.1,1.323,1.323,0,0,0-.238.026,21.922,21.922,0,0,1-7.962,3.985,20.539,20.539,0,0,1-4.972.6c-.736,0-1.5-.037-2.265-.109a2.578,2.578,0,0,1-.546-.117.969.969,0,0,1-.224-.125l-.1-.062c-.04-.307.163-.441.359-.569.046-.03.1-.068.151-.106a26.684,26.684,0,0,0,5.038-5.248l.023-.031a4.526,4.526,0,0,0,.936-1.77.545.545,0,0,0-.093-.46.5.5,0,0,0-.4-.173.764.764,0,0,0-.158.017,6.886,6.886,0,0,0-2.073.945l-.122.073c-.389.232-.778.482-1.154.724-.5.322-1.02.656-1.548.953a29.735,29.735,0,0,1-7.3,2.8,2.627,2.627,0,0,1-.658.091,2.08,2.08,0,0,1-1.249-.434,22.179,22.179,0,0,1-8.165-10.676,23.616,23.616,0,0,1-.609-14.456,23.09,23.09,0,0,1,2.911-6.481,21.9,21.9,0,0,1,4.787-5.257l.1-.077c.065-.05.131-.1.194-.157.532-.456.577-.543.191-1.053A56.124,56.124,0,0,1,25,28.724a1.749,1.749,0,0,0-1.713-1.156c-.066,0-.133,0-.2.007-.453.032-.915.04-1.361.049h-.062l-.261.005c-.322.008-.648.012-.971.012a33.916,33.916,0,0,1-12.4-2.258,19.606,19.606,0,0,1-4.894-2.7A10.416,10.416,0,0,1,.291,19.5c-.3-.533-.367-.941-.209-1.211s.567-.42,1.207-.426h.045a8.984,8.984,0,0,1,1.624.164,43.678,43.678,0,0,1,6.816,1.965,116.757,116.757,0,0,1,12.375,5.256,11.631,11.631,0,0,1,4.586,4,87.092,87.092,0,0,1,4.554,7.728c.073.136.139.28.2.42a2.446,2.446,0,0,0,.816,1.136l.725-.357c.8-.4,1.631-.8,2.457-1.191a.7.7,0,0,0,.429-.893c-.216-1.2-.379-2.2-.511-3.135a4.745,4.745,0,0,1-.025-.735c0-.116,0-.248,0-.376a.114.114,0,0,0,0-.014v.006A12.128,12.128,0,0,1,35,27.961c-.082-1.926.109-1.86-1.945-2.566a24.7,24.7,0,0,1-12.8-9.81,11.577,11.577,0,0,1-1.516-3.4,4.538,4.538,0,0,1-.172-1.845.572.572,0,0,1,.662-.5,2.569,2.569,0,0,1,1.381.522c.818.565,1.649,1.123,2.409,1.762A84.384,84.384,0,0,1,34.05,23.516a7.031,7.031,0,0,1,1.809,4.394,11.859,11.859,0,0,1,.6,3.108c.024.238.049.483.076.725.114,1,.209,2.029.3,3.019l0,.02,0,.026c.042.45.086.916.13,1.372a2.425,2.425,0,0,0,.433.039,4.477,4.477,0,0,0,1.252-.232,6.84,6.84,0,0,1,.752-.185,23.6,23.6,0,0,1,3.809-.321,19.271,19.271,0,0,1,7.9,1.645,22.025,22.025,0,0,1,6.8,4.864,21.368,21.368,0,0,1,4.02,5.8,24.231,24.231,0,0,1,2.005,6.8,23.423,23.423,0,0,1-1.17,11.4c-.082.232-.154.464-.229.709-.036.117-.073.233-.11.352a.5.5,0,0,0,.247.073.582.582,0,0,0,.373-.189,1.024,1.024,0,0,1,.168-.126,2.847,2.847,0,0,0,.376-.271l0,0c.071-.057.145-.117.22-.17a24.5,24.5,0,0,1,6.37-3.293,28.77,28.77,0,0,1,7.024-1.425c.295-.023.519-.034.708-.034.471,0,.726.074.829.241.156.255-.032.737-.409,1.483A58.17,58.17,0,0,1,70.859,74.6a62.628,62.628,0,0,1-9.828,9.285c-.974.741-2,1.446-2.994,2.127-.371.254-.753.516-1.128.777a6.127,6.127,0,0,1-.807.468.541.541,0,0,1-.238.056A.6.6,0,0,1,55.292,86.774ZM33.3,49.062A7.131,7.131,0,0,0,40.4,56.2h.043a7.11,7.11,0,0,0,.011-14.22H40.43A7.139,7.139,0,0,0,33.3,49.062Zm53.137,8.683a20.481,20.481,0,0,0-6.68-.471c-1.1.074-1.306-.067-1.578-1.123q-1.17-4.522-1.914-9.136a115.2,115.2,0,0,1-1.545-20.848A61.1,61.1,0,0,1,76.6,11.561a24.958,24.958,0,0,1,2.253-5.72,13.218,13.218,0,0,1,2.48-3.26A9.437,9.437,0,0,1,87.771,0a14.978,14.978,0,0,1,5.077,1.139A25.62,25.62,0,0,1,97.714,3.9a45.8,45.8,0,0,1,7.724,7.034c.8.9.8,1.064.023,1.864A33.519,33.519,0,0,0,99.8,21.106a116.589,116.589,0,0,0-6.765,16.781c-1.977,5.974-3.653,12.029-5.174,18.131-.089.362-.152.733-.273,1.084-.159.461-.408.694-.8.694A1.374,1.374,0,0,1,86.442,57.745ZM39.053,54.466a1.47,1.47,0,0,0-.8-1.7,1.282,1.282,0,0,0-1.75.456c-.07.082-.137.167-.238.3a3.264,3.264,0,0,1-.909-2.554,3.531,3.531,0,0,1,.87-2.406,3.721,3.721,0,0,1,4.765-.659A4.415,4.415,0,0,1,43,52.883a3.444,3.444,0,0,1-3.326,2.53q-.086,0-.161,0C38.92,55.418,38.84,55.211,39.053,54.466Z" transform="translate(0 0.224)" fill="#fff"/>
      <path id="Path_13" data-name="Path 13" d="M1112.29,265.793a4.915,4.915,0,0,1,.328-.413c.125-.129.292-.23.444-.051a.387.387,0,0,1,.063.335,5.109,5.109,0,0,1-.355.612C1112.61,266.116,1112.45,265.956,1112.29,265.793Z" transform="translate(-1056.363 -189.802)" fill="#a6aecc"/>
    </g>
  </g>
</svg>
