<svg xmlns="http://www.w3.org/2000/svg" width="24" height="24" viewBox="0 0 24 24">
  <g id="dc257e41a33cd4670b39554176260a45" transform="translate(-1 -1)">
    <path id="Path_4" data-name="Path 4" d="M18.048,15.824C19.624,13.48,21,10.9,21,9A8,8,0,1,0,5,9c0,1.9,1.376,4.48,2.952,6.824C4.392,16.448,1,17.864,1,20.2,1,23.32,7.184,25,13,25s12-1.68,12-4.8C25,17.864,21.608,16.448,18.048,15.824ZM13,2.6A6.4,6.4,0,0,1,19.4,9c0,1.856-1.92,4.952-3.848,7.568-.992,1.344-1.96,2.512-2.552,3.2-.592-.7-1.552-1.856-2.552-3.2C8.52,13.952,6.6,10.856,6.6,9A6.4,6.4,0,0,1,13,2.6Zm0,20.8c-6.352,0-10.4-1.9-10.4-3.2,0-1.016,2.4-2.352,6.4-2.92,1.472,2.016,2.88,3.632,3.336,4.144a.882.882,0,0,0,1.392,0c.456-.512,1.864-2.128,3.336-4.144,4,.568,6.4,1.9,6.4,2.92C23.4,21.5,19.352,23.4,13,23.4Z" transform="translate(0 0)" fill="#fff"/>
    <path id="Path_5" data-name="Path 5" d="M16,16a5,5,0,1,0-5-5,5,5,0,0,0,5,5Zm0-8a3,3,0,1,1-3,3A3,3,0,0,1,16,8Z" transform="translate(-3 -1.5)" fill="#fff"/>
  </g>
</svg>
