<?xml version="1.0" encoding="utf-8"?>
<!-- Generator: Adobe Illustrator 26.3.1, SVG Export Plug-In . SVG Version: 6.00 Build 0)  -->
<svg version="1.1" id="Layer_1" xmlns="http://www.w3.org/2000/svg" xmlns:xlink="http://www.w3.org/1999/xlink" x="0px" y="0px"
	 viewBox="0 0 24 24" style="enable-background:new 0 0 24 24;" xml:space="preserve">
<g transform="translate(0.000000,512.000000) scale(0.100000,-0.100000)">
	<path d="M110.5,5119.4c-9.5-1.1-18.6-3.8-27.4-8.1c-17.6-8.7-30.8-21.8-39.1-39.3c-15.3-31.7-9.8-65.8,18-112.4
		c7.9-13.3,15.3-24.2,33.8-50.4c6.2-8.8,13.1-18.6,15.3-21.8c4.2-6.1,5.8-7.5,8.8-7.5s4.6,1.4,8.8,7.5c2.3,3.2,9.1,13,15.3,21.8
		c18.2,25.6,26.2,37.5,33.9,50.6c25,42,31.6,72.7,22,102.2c-1.8,5.5-6.6,15.3-10.2,20.6C172.5,5108.5,141.3,5122.9,110.5,5119.4z
		 M133.7,5104.5c31.9-6.7,54.8-33.5,56.3-65.9c0.8-15.6-3.9-32.9-14.9-54.6c-8.6-17.1-18-32-43.1-67.4c-6.6-9.3-12-16.9-12.2-16.9
		s-1.5,1.7-2.9,3.8c-1.5,2.1-7.2,10.3-12.8,18.1c-11.1,15.6-22.1,31.8-27.3,40.3c-19.5,31.7-28.2,56.2-27.2,76.6
		c1.2,25.6,15.7,48,38.8,59.7c7,3.6,14.6,5.9,23,7.1C116.4,5106.1,128.3,5105.6,133.7,5104.5z"/>
	<path d="M111.4,5076.9c-15.9-3.5-28.2-15.1-32.4-30.8c-0.8-3-1-5-1-10.5c0-5.5,0.2-7.5,1-10.5c4.1-15.2,15.9-26.7,31.3-30.6
		c4.8-1.2,15.1-1.1,20.1,0.3c14.9,4,26.3,15.4,30.3,30.3c0.8,3,1,5,1,10.5c0,5.5-0.2,7.5-1,10.5c-4,14.9-15.6,26.4-30.3,30.3
		C125,5077.8,116.6,5078,111.4,5076.9z M126.6,5062.8c5.3-1.4,8.9-3.4,12.9-7.5c4.1-4,6.1-7.6,7.5-12.9c1.7-6.6,0.8-13.8-2.4-20
		c-2.1-3.8-7.7-9.5-11.5-11.5c-6.2-3.3-13.4-4.1-20-2.4c-5.2,1.3-8.9,3.4-12.9,7.5c-4.1,4-6.1,7.6-7.5,12.9
		c-1.7,6.6-0.8,13.8,2.4,20c2,3.8,7.6,9.4,11.5,11.5C112.8,5063.6,120,5064.4,126.6,5062.8z"/>
</g>
</svg>
