<svg width="138" height="117" viewBox="0 0 138 117" fill="none" xmlns="http://www.w3.org/2000/svg">
<path d="M60.061 98.7598C58.1653 96.3845 56.5763 93.7902 55.3298 91.0356C54.8772 90.0251 54.9495 89.7678 55.9526 89.2283C58.7067 87.7553 61.3415 86.0787 63.8337 84.2131C72.3945 77.9918 78.9881 69.5409 82.8592 59.8285C82.9229 59.666 82.9961 59.5062 83.0703 59.3502C83.4592 58.5246 83.7416 58.3398 84.5868 58.6072C85.9398 59.027 87.2861 59.4765 88.6011 60.0003C90.191 60.6345 91.7259 61.3933 93.1906 62.2692C93.4384 62.3948 93.6336 62.6009 93.7426 62.8519C93.8516 63.103 93.8675 63.3833 93.7877 63.6446C93.762 63.7422 93.6726 64.0756 93.5804 64.409C90.69 74.6314 84.7482 83.7813 76.5126 90.6919C72.4611 94.1742 67.9527 97.1138 63.1064 99.4331C62.6242 99.7262 62.0886 99.9255 61.529 100.02C61.0536 100.024 60.7579 99.6439 60.061 98.7598ZM99.9612 62.7391C97.5519 59.9037 94.3677 58.1401 91.0342 56.5863C90.4447 56.3077 89.8447 56.069 89.2476 55.8118C88.1276 55.326 88.0582 55.2322 88.3358 54.1317C88.8587 52.0532 89.3589 49.971 89.9598 47.9139C92.8686 37.8312 96.8182 28.0632 101.748 18.7602C103.506 15.4791 105.466 12.3048 107.617 9.25471C110.569 5.14202 114.872 2.13996 119.813 0.74758C121.569 0.213162 123.402 -0.0377958 125.241 0.00459882C126.969 -0.00689029 128.672 0.399835 130.2 1.18844C131.727 1.97704 133.031 3.12295 133.994 4.52378C135.152 6.14102 136.013 7.94311 136.537 9.8491C137.523 13.3435 138.01 16.9541 137.984 20.5787C138.275 30.2062 134.663 39.5566 127.933 46.596C123.882 50.914 119.162 54.5836 113.946 57.4705C110.31 59.5376 106.495 61.2885 102.545 62.7029C102.157 62.8404 101.753 62.9416 101.374 63.1088C101.213 63.1834 101.038 63.2239 100.86 63.2276C100.682 63.2186 100.508 63.1699 100.352 63.0852C100.197 63.0005 100.063 62.8821 99.9612 62.7391Z" fill="#FFEF04"/>
<path d="M114.916 116.939C114.538 116.774 114.205 116.526 113.942 116.214C112.97 115.367 112.014 114.502 111.021 113.683C110.428 113.203 109.805 112.76 109.156 112.354C107.518 111.315 107.51 111.325 105.868 112.322C103.43 113.765 100.722 114.716 97.9017 115.121C96.1501 115.423 94.3706 115.541 92.5934 115.473C92.4895 115.47 92.3855 115.475 92.2824 115.488C91.9611 115.52 91.6235 115.552 91.5218 115.165C91.422 114.799 91.9259 114.665 92.1931 114.462C92.4602 114.258 92.775 114.067 93.0678 113.865C101.408 108.255 108.107 100.619 112.505 91.7098C112.639 91.4542 112.787 91.2061 112.95 90.9668C112.968 90.9269 113.045 90.9232 113.28 90.8359C113.643 92.014 113.825 93.238 113.821 94.4681C113.98 96.6057 113.874 98.7542 113.506 100.867C113.141 103.101 112.33 105.243 111.119 107.171C110.915 107.45 110.803 107.783 110.797 108.126C110.791 108.468 110.892 108.804 111.085 109.09C111.625 110.055 112.262 110.965 112.987 111.807C113.785 112.735 114.621 113.639 115.419 114.573C115.725 114.922 115.987 115.305 116.201 115.714C116.286 115.869 116.318 116.047 116.293 116.222C116.268 116.397 116.186 116.559 116.06 116.685C115.968 116.785 115.856 116.865 115.73 116.919C115.604 116.974 115.468 117.001 115.331 117C115.19 116.999 115.051 116.979 114.916 116.939ZM77.4994 112.054C74.5293 110.743 71.7025 109.143 69.062 107.277C68.8719 107.14 68.6732 107.009 68.4916 106.864C67.8726 106.371 67.884 106.063 68.5439 105.715C68.9584 105.494 69.3929 105.306 69.8113 105.093C78.9981 100.533 86.844 93.7627 92.6086 85.4196C95.8407 80.6973 98.2753 75.4987 99.8194 70.0222C99.9307 69.6312 100.023 69.2365 100.146 68.8529C100.379 68.1183 100.743 67.9799 101.25 68.4815C104.268 71.436 106.827 74.8055 108.846 78.4829C108.932 78.6438 109.005 78.8108 109.065 78.9826C108.936 79.4098 108.813 79.8556 108.661 80.293C106.926 85.3478 104.411 90.114 101.202 94.4263C95.6656 101.78 88.4675 107.786 80.1674 111.979C79.7408 112.219 79.2596 112.35 78.7678 112.361C78.3269 112.351 77.8939 112.245 77.4994 112.053V112.054ZM52.5724 80.8019C52.5469 80.6352 52.5323 80.4671 52.5286 80.2986V80.2837C52.2826 77.3333 52.6209 74.3642 53.5251 71.5388C53.5611 71.4241 53.589 71.3071 53.6087 71.1887V71.1822C53.6182 71.132 53.6277 71.081 53.6382 71.0308C53.7038 70.8451 53.7086 70.7243 53.6534 70.6472C53.6236 70.6134 53.5857 70.5872 53.5431 70.571C53.5005 70.5548 53.4545 70.5491 53.4091 70.5544C53.333 70.5557 53.2573 70.5638 53.1828 70.5785C50.9451 72.305 48.3685 73.5646 45.6125 74.2795C44.0659 74.6529 42.4783 74.84 40.8851 74.8367C40.1854 74.8367 39.459 74.8024 38.7316 74.7355C38.555 74.7177 38.381 74.6813 38.2125 74.6268C38.1365 74.5975 38.0649 74.5585 37.9995 74.5107L37.9044 74.4532C37.8664 74.168 38.0594 74.0436 38.2457 73.9247C38.2895 73.8969 38.3408 73.8616 38.3893 73.8263C40.2063 72.4228 41.818 70.7829 43.1794 68.9523L43.2013 68.9235C43.6199 68.4473 43.9239 67.8857 44.0912 67.2797C44.11 67.2065 44.1118 67.1302 44.0965 67.0563C44.0812 66.9824 44.0492 66.9127 44.0028 66.8525C43.9559 66.7994 43.8974 66.7574 43.8315 66.7295C43.7656 66.7017 43.6942 66.6888 43.6225 66.6918C43.572 66.6919 43.5216 66.6972 43.4723 66.7076C42.7699 66.8912 42.1038 67.1878 41.5013 67.5852L41.3853 67.653C41.0154 67.8685 40.6455 68.1007 40.288 68.3254C39.8126 68.6245 39.3182 68.9347 38.8162 69.2105C36.6299 70.3719 34.2961 71.2463 31.8754 71.8109C31.6713 71.8649 31.4611 71.8932 31.2498 71.8954C30.8196 71.8908 30.4026 71.7493 30.0622 71.4924C26.4868 69.0512 23.7745 65.5871 22.2989 61.5773C20.6726 57.2715 20.4701 52.5758 21.7199 48.1516C22.3191 46.0178 23.2527 43.9874 24.4877 42.1326C25.7224 40.2738 27.2599 38.6247 29.0392 37.2502L29.1342 37.1787C29.196 37.1323 29.2588 37.0859 29.3187 37.0329C29.8245 36.6094 29.8673 36.5286 29.5003 36.055C27.2725 33.2006 25.3524 30.1291 23.7708 26.8894C23.6513 26.5646 23.429 26.2855 23.1361 26.0925C22.8433 25.8994 22.4951 25.8025 22.1421 25.8158C22.0793 25.8158 22.0156 25.8158 21.9519 25.8223C21.5212 25.852 21.0819 25.8594 20.6579 25.8678H20.5989L20.3508 25.8724C20.0446 25.8799 19.7346 25.8836 19.4275 25.8836C15.3979 25.9102 11.3989 25.1989 7.63764 23.7865C5.97193 23.172 4.40494 22.3276 2.98443 21.2789C1.88279 20.4868 0.961115 19.4802 0.27751 18.3228C-0.00772975 17.8278 -0.0714332 17.4489 0.0787929 17.1981C0.229019 16.9474 0.617895 16.8081 1.22641 16.8025H1.26919C1.78756 16.8074 2.30439 16.8584 2.81329 16.9548C5.02058 17.3905 7.18794 18.0008 9.29393 18.7797C13.3087 20.1848 17.2373 21.8146 21.0601 23.6611C22.8253 24.4995 24.3302 25.7817 25.4204 27.376C26.989 29.6942 28.4342 32.0898 29.7503 34.5532C29.8198 34.6795 29.8825 34.8133 29.9405 34.9433C30.0885 35.3612 30.3581 35.7279 30.7164 35.9983L31.4057 35.6668C32.1663 35.2953 32.9564 34.9238 33.7418 34.5607C33.8244 34.5324 33.9004 34.4886 33.9656 34.4316C34.0308 34.3746 34.0839 34.3056 34.1218 34.2286C34.1597 34.1516 34.1816 34.068 34.1864 33.9827C34.1912 33.8973 34.1787 33.8119 34.1497 33.7313C33.9443 32.6168 33.7893 31.6881 33.6638 30.8197C33.6378 30.5932 33.6299 30.3649 33.6401 30.1371C33.6401 30.0294 33.6401 29.9068 33.6401 29.7879C33.6403 29.7836 33.6403 29.7793 33.6401 29.7749V29.7805C33.3219 28.6074 33.1999 27.3919 33.2788 26.1808C33.2008 24.392 33.3824 24.4533 31.4295 23.7976C26.4434 22.1763 22.1581 18.9683 19.2592 14.6868C18.6075 13.7171 18.1208 12.6508 17.8178 11.5292C17.6432 10.9751 17.5876 10.3917 17.6543 9.81568C17.6626 9.74405 17.6857 9.67483 17.7223 9.61222C17.7588 9.5496 17.808 9.49491 17.8669 9.45147C17.9258 9.40803 17.9931 9.37675 18.0648 9.35953C18.1364 9.34231 18.2109 9.33951 18.2837 9.35131C18.7605 9.38394 19.2171 9.5525 19.5968 9.83611C20.3745 10.3608 21.1646 10.8791 21.8872 11.4725C25.7156 14.6698 29.2272 18.2121 32.3755 22.0526C33.4163 23.1766 34.0244 24.6194 34.0955 26.1334C34.4169 27.0663 34.6087 28.0371 34.666 29.0199C34.6888 29.2409 34.7126 29.4685 34.7382 29.6932C34.8466 30.6219 34.937 31.5776 35.0235 32.497V32.5156V32.5397C35.0634 32.9577 35.1052 33.3905 35.1471 33.814C35.2829 33.8381 35.4207 33.8502 35.5588 33.8502C35.9641 33.8341 36.3649 33.7616 36.7492 33.6347C36.984 33.5643 37.2227 33.5069 37.4642 33.4629C38.6611 33.268 39.8723 33.1683 41.0858 33.1648C43.6719 33.1505 46.2317 33.6712 48.5971 34.6925C51.0277 35.7813 53.2224 37.3147 55.0625 39.2099C56.6334 40.7861 57.9251 42.6064 58.8847 44.5965C59.8337 46.5989 60.476 48.7268 60.7911 50.9118C61.3234 54.4765 60.9412 58.1145 59.6786 61.4993C59.6007 61.7148 59.5322 61.9302 59.4609 62.1578C59.4267 62.2664 59.3915 62.3741 59.3563 62.4847C59.4272 62.5269 59.5081 62.5503 59.5911 62.5525C59.7275 62.5389 59.8539 62.4763 59.9458 62.3769C59.9948 62.3327 60.0483 62.2935 60.1055 62.2599C60.2315 62.1856 60.3511 62.1015 60.463 62.0082C60.5305 61.9553 60.6009 61.8996 60.6722 61.8503C62.5266 60.5463 64.5673 59.5158 66.7288 58.7921C68.8897 58.0807 71.1333 57.6361 73.4072 57.4686C73.6877 57.4473 73.9007 57.437 74.0804 57.437C74.5282 57.437 74.7706 57.5058 74.8686 57.6609C75.0169 57.8977 74.8381 58.3453 74.4797 59.0382C72.535 62.7818 70.1501 66.2913 67.3734 69.4956C64.5863 72.691 61.4532 75.5822 58.029 78.1188C57.1029 78.807 56.1274 79.4618 55.1823 80.0942C54.8295 80.3301 54.4663 80.5735 54.1098 80.8159C53.8657 80.9796 53.6092 81.1249 53.3425 81.2505C53.2721 81.2845 53.1947 81.3023 53.1162 81.3025C52.9791 81.2969 52.8486 81.2433 52.7487 81.1513C52.6488 81.0594 52.5862 80.9353 52.5724 80.8019ZM31.6624 45.7778C31.6606 47.5304 32.3701 49.2123 33.6355 50.4548C34.9008 51.6974 36.6188 52.3994 38.4131 52.4071H38.454C40.2469 52.4084 41.9669 51.714 43.2357 50.4766C44.5044 49.2392 45.218 47.5602 45.2194 45.8089C45.2207 44.0576 44.5098 42.3775 43.243 41.1382C41.9762 39.8989 40.2573 39.2019 38.4644 39.2006H38.4416C36.6522 39.2027 34.9361 39.895 33.6665 41.1267C32.397 42.3584 31.6767 44.03 31.6624 45.7778ZM82.185 53.8419C80.1068 53.3568 77.961 53.209 75.8336 53.4045C74.7878 53.4732 74.5919 53.3423 74.3333 52.3616C73.5917 49.5618 72.985 46.7335 72.5134 43.8767C71.424 37.4795 70.9324 30.9988 71.0445 24.5146C71.0782 19.9391 71.6784 15.3844 72.832 10.9496C73.3192 9.09941 74.0387 7.31511 74.9741 5.63734C75.5943 4.51457 76.3898 3.49309 77.3321 2.60969C78.987 1.08065 81.1754 0.223703 83.4533 0.212646C85.1133 0.287463 86.747 0.645471 88.2805 1.27047C89.9139 1.95767 91.4654 2.81753 92.9071 3.83468C95.6022 5.7315 98.0662 7.92331 100.251 10.3673C101.012 11.2032 101.012 11.3555 100.273 12.0985C98.0919 14.3915 96.2773 16.9927 94.8905 19.8143C92.3364 24.8387 90.1858 30.0494 88.4583 35.3993C86.5786 40.9475 84.9851 46.5709 83.5389 52.238C83.4543 52.5742 83.3944 52.9188 83.2793 53.2448C83.1282 53.6729 82.8914 53.8893 82.5187 53.8893C82.4074 53.8873 82.2969 53.8714 82.1897 53.8419H82.185ZM37.1323 50.7966C37.2141 50.4881 37.1829 50.1614 37.044 49.873C36.905 49.5847 36.6672 49.3529 36.3717 49.2178C36.0934 49.0593 35.7621 49.0148 35.4503 49.0942C35.1385 49.1735 34.8715 49.3702 34.7078 49.6413C34.6413 49.7175 34.5775 49.7964 34.4815 49.9199C34.1719 49.6081 33.9345 49.235 33.7854 48.8257C33.6362 48.4165 33.5789 47.9807 33.6172 47.548C33.5973 46.7283 33.8924 45.9311 34.4444 45.3134C35.0033 44.7042 35.7653 44.3083 36.5949 44.1962C37.4244 44.0841 38.2678 44.2631 38.975 44.7014C39.7696 45.16 40.3874 45.8616 40.7327 46.6977C41.078 47.5337 41.1316 48.4577 40.8851 49.3265C40.6946 50.0026 40.2819 50.5988 39.7105 51.0233C39.1391 51.4479 38.4407 51.6773 37.7228 51.6762C37.6683 51.6762 37.6173 51.6762 37.5697 51.6762C37.0059 51.6808 36.9298 51.4885 37.1323 50.7966Z" fill="white"/>
</svg>
